# AST/ASF file generated using VICON BodyLanguage
# -----------------------------------------------
:version 1.10
:name VICON
:units
  mass 1.0
  length 0.45
  angle deg
:documentation
   .ast/.asf automatically generated from VICON data using
   VICON BodyBuilder and BodyLanguage model FoxedUp or BRILLIANT.MOD
:root
   order TX TY TZ RX RY RZ
   axis XYZ
   position 0 0 0  
   orientation 0 0 0 
:bonedata
  begin
     id 1 
     name lhipjoint
     direction 0.560651 -0.75055 0.34978 
     length 2.44936 
     axis 0 0 0  XYZ
  end
  begin
     id 2 
     name lfemur
     direction 0.34202 -0.939693 0  
     length 7.42139  
     axis 0 0 20  XYZ
    dof rx ry rz
    limits (-160.0 20.0)
           (-70.0 70.0)
           (-60.0 70.0)
  end
  begin
     id 3 
     name ltibia
     direction 0.34202 -0.939693 0   
     length 7.75674   
     axis 0 0 20   XYZ
    dof rx
    limits (-10.0 170.0)
  end
  begin
     id 4 
     name lfoot
     direction 0.0925879 -0.254383 0.962661   
     length 2.38688   
     axis -90 7.62852e-016 20   XYZ
    dof rx rz
    limits (-45.0 90.0)
           (-70.0 20.0)
  end
  begin
     id 5 
     name ltoes
     direction 1.53567e-011 -4.21973e-011 1   
     length 1.19228   
     axis -90 7.62852e-016 20   XYZ
    dof rx
    limits (-90.0 20.0)
  end
  begin
     id 6 
     name rhipjoint
     direction -0.540087 -0.762838 0.355506   
     length 2.4099  
     axis 0 0 0  XYZ 
  end
  begin
     id 7 
     name rfemur
     direction -0.34202 -0.939693 0   
     length 7.70794   
     axis 0 0 -20   XYZ
    dof rx ry rz
    limits (-160.0 20.0)
           (-70.0 70.0)
           (-70.0 60.0)
  end
  begin
     id 8 
     name rtibia
     direction -0.34202 -0.939693 0   
     length 7.66106   
     axis 0 0 -20   XYZ
    dof rx
    limits (-10.0 170.0)
 end
 begin
     id 9 
     name rfoot
     direction -0.0830975 -0.228308 0.970036   
     length 2.4989  
     axis -90 -7.62852e-016 -20   XYZ
    dof rx rz
    limits (-45.0 90.0)
           (-20.0 70.0)
  end
  begin
     id 10 
     name rtoes
     direction -1.53517e-011 -4.21842e-011 1   
     length 1.2498   
     axis -90 -7.62852e-016 -20   XYZ
    dof rx
    limits (-90.0 20.0)
  end
  begin
     id 11 
     name lowerback
     direction 0.0266356 0.99402 -0.105896   
     length 2.1545   
     axis 0 0 0   XYZ
    dof rx ry rz
    limits (-20.0 45.0)
           (-30.0 30.0)
           (-30.0 30.0)
  end
  begin
     id 12 
     name upperback
     direction 0.0130547 0.999192 0.0380027   
     length 2.1434   
     axis 0 0 0   XYZ
    dof rx ry rz
    limits (-20.0 45.0)
           (-30.0 30.0)
           (-30.0 30.0)
  end
  begin
     id 13 
     name thorax
     direction 0.000590299 0.996288 0.0860764   
     length 2.19049   
     axis 0 0 0   XYZ
    dof rx ry rz
    limits (-20.0 45.0)
           (-30.0 30.0)
           (-30.0 30.0)
  end
  begin
     id 14 
     name lowerneck
     direction -0.0432125 0.978219 0.203028   
     length 1.62441   
     axis 0 0 0   XYZ
    dof rx ry rz
    limits (-20.0 45.0)
           (-30.0 30.0)
           (-30.0 30.0)
  end
  begin
     id 15 
     name upperneck
     direction -0.0192309 0.991699 -0.127138   
     length 1.66666   
     axis 0 0 0   XYZ
    dof rx ry rz
    limits (-20.0 45.0)
           (-30.0 30.0)
           (-30.0 30.0)
  end
  begin
     id 16
     name head
     direction -0.00434499 0.997882 -0.0649107  
     length 1.67142  
     axis 0 0 0   XYZ
    dof rx ry rz
    limits (-20.0 45.0)
           (-30.0 30.0)
           (-30.0 30.0)
  end
  begin
     id 17 
     name lclavicle
     direction 0.970351 0.240904 -0.0196058  
     length 4.04862  
     axis 0 0 0   XYZ
    dof ry rz
    limits (-20.0 10.0)
           (0.0 20.0)
  end
  begin
     id 18 
     name lhumerus
     direction 1 -4.4896e-011 -1.40911e-018   
     length 5.58345   
     axis 180 -30 -90   XYZ
    dof rx ry rz
    limits (-60.0 90.0)
           (-90.0 90.0)
           (-90.0 90.0)
  end
  begin
     id 19
     name lradius
     direction 1 -4.48968e-011 5.88912e-028   
     length 3.71087   
     axis 180 -30 -90   XYZ
    dof rx
    limits (-10.0 170.0)
  end
  begin
     id 20
     name lwrist
     direction 1 -4.48955e-011 -8.83775e-028   
     length 1.85544   
     axis 5.52448e-016 90 90   XYZ
    dof ry
    limits (-180.0 0.0)
 end
  begin
     id 21 
     name lhand
     direction 1 -4.49035e-011 -1.76755e-027   
     length 0.562322   
     axis 1.12785e-015 90 90   XYZ
    dof rx rz
    limits (-90.0 90.0)
           (-45.0 45.0)
  end
  begin
     id 22 
     name lfingers
     direction 1 -4.48824e-011 -3.5351e-027   
     length 0.453359   
     axis 2.2557e-015 90 90   XYZ
    dof rx
    limits (0.0 90.0)
  end
  begin
     id 23
     name lthumb
     direction 0.707107 -6.34888e-011 0.707107   
     length 0.650935   
     axis -90 45 2.85299e-015   XYZ
    dof rx rz
    limits (-45.0 45.0)
           (-45.0 45.0)
  end
  begin
     id 24 
     name rclavicle
     direction -0.96165 0.268562 -0.0557131   
     length 4.05446  
     axis 0 0 0   XYZ 
    dof ry rz
    limits (-10.0 20.0)
           (-20.0 0.0)
  end
  begin
     id 25 
     name rhumerus
     direction -1 -4.48957e-011 -3.36329e-027  
     length 5.20357   
     axis 180 30 90   XYZ
    dof rx ry rz
    limits (-90.0 60.0)
           (-90.0 90.0)
           (-90.0 90.0)
  end
  begin
     id 26 
     name rradius
     direction -1 -4.48974e-011 4.51441e-027   
     length 3.64937   
     axis 180 30 90   XYZ
    dof rx
    limits (-10.0 170.0)
  end
  begin
     id 27 
     name rwrist
     direction -1 -4.4896e-011 -8.83775e-028   
     length 1.82468   
     axis 5.52448e-016 -90 -90   XYZ
    dof ry
    limits (-180.0 0.0)
  end
  begin
     id 28
     name rhand
     direction -1 -4.48996e-011 -1.76755e-027   
     length 0.617996   
     axis 1.12785e-015 -90 -90   XYZ
    dof rx rz
    limits (-90.0 90.0)
           (-45.0 45.0)
  end
  begin
     id 29
     name rfingers
     direction -1 -4.48957e-011 -3.5351e-027   
     length 0.498244   
     axis 2.2557e-015 -90 -90   XYZ
    dof rx
    limits (0.0 90.0)
  end
  begin
     id 30
     name rthumb
     direction -0.707107 -6.34931e-011 0.707107   
     length 0.715382   
     axis -90 -45 -2.85299e-015   XYZ
    dof rx rz
    limits (-45.0 45.0)
           (-45.0 45.0)
  end
:hierarchy
  begin
    root lhipjoint rhipjoint lowerback
    lhipjoint lfemur
    lfemur ltibia
    ltibia lfoot
    lfoot ltoes
    rhipjoint rfemur
    rfemur rtibia
    rtibia rfoot
    rfoot rtoes
    lowerback upperback
    upperback thorax
    thorax lowerneck lclavicle rclavicle
    lowerneck upperneck
    upperneck head
    lclavicle lhumerus
    lhumerus lradius
    lradius lwrist
    lwrist lhand lthumb
    lhand lfingers
    rclavicle rhumerus
    rhumerus rradius
    rradius rwrist
    rwrist rhand rthumb
    rhand rfingers
  end

#!OML:ASF H:\ManfredETheater\Project 1\Capture day 2\Session 1\Male1.ASF
:FULLY-SPECIFIED
:DEGREES
145
root -0.135548 16.6779 18.0841 14.7789 1.57977 2.57412
lowerback 13.0441 -0.654638 -4.24917
upperback -1.0593 -1.46741 0.900703
thorax -8.34653 -0.4941 3.66088
lowerneck -24.5177 0.892332 0.0300078
upperneck 12.3523 1.55869 -1.98837
head 7.79436 0.529178 -0.465595
rclavicle 9.34288e-015 0
rhumerus -37.9789 -2.46561 -81.3054
rradius 52.1672
rwrist -2.47128
rhand -33.4494 -6.0027
rfingers 7.12502
rthumb -6.64802 -35.8783
lclavicle 9.34288e-015 0
lhumerus -30.1343 -2.10198 85.1947
lradius 74.7549
lwrist 1.99462
lhand -20.5444 0.428106
lfingers 7.12502
lthumb 5.81426 30.3283
rfemur -55.3804 -13.3158 25.3278
rtibia 86.7955
rfoot -22.8975 0.477792
rtoes -20.5892
lfemur 2.0866 -3.34562 -26.7333
ltibia 29.044
lfoot -24.7794 -2.43648
ltoes -12.8612
146
root -0.140748 16.5728 18.1982 15.1692 1.51686 2.89524
lowerback 13.5239 -0.67935 -4.6865
upperback -0.803001 -1.59699 0.777226
thorax -8.32329 -0.544814 3.81122
lowerneck -24.8586 1.00325 0.173151
upperneck 11.9967 1.65733 -2.00693
head 7.73076 0.582207 -0.480877
rclavicle 1.93318e-014 1.78906e-015
rhumerus -38.0642 -2.67844 -81.2649
rradius 52.3335
rwrist -3.0164
rhand -33.3253 -6.27516
rfingers 7.12502
rthumb -6.52827 -36.1545
lclavicle 1.93318e-014 1.78906e-015
lhumerus -28.7337 -1.799 85.1025
lradius 76.3991
lwrist 2.70661
lhand -20.5202 0.600557
lfingers 7.12502
lthumb 5.83757 30.5001
rfemur -58.0982 -13.5371 26.0449
rtibia 86.8326
rfoot -23.4657 0.163533
rtoes -21.3512
lfemur 2.4879 -3.41121 -27.1355
ltibia 28.5578
lfoot -25.5879 -2.16448
ltoes -12.4434
147
root -0.150462 16.4687 18.3125 15.5274 1.62816 3.32209
lowerback 14.2025 -0.744553 -5.17947
upperback -0.631045 -1.80777 0.639838
thorax -8.49306 -0.624783 4.00419
lowerneck -25.0222 1.09823 0.313462
upperneck 11.6313 1.72553 -1.97895
head 7.6347 0.626562 -0.484482
rclavicle 1.49089e-016 1.43125e-014
rhumerus -38.3491 -2.83994 -81.2361
rradius 52.5467
rwrist -3.61204
rhand -33.5427 -6.46357
rfingers 7.12502
rthumb -6.73809 -36.3364
lclavicle 1.49089e-016 1.43125e-014
lhumerus -27.4874 -1.53222 85.077
lradius 78.1687
lwrist 3.30337
lhand -20.8694 1.12143
lfingers 7.12502
lthumb 5.50043 31.03
rfemur -60.6838 -13.8415 26.7038
rtibia 86.5674
rfoot -23.9745 -0.116477
rtoes -21.9408
lfemur 2.83318 -3.44022 -27.495
ltibia 28.2417
lfoot -26.3548 -2.26766
ltoes -11.7695
148
root -0.16392 16.3718 18.4375 15.803 1.63271 3.62672
lowerback 14.8258 -0.738147 -5.67647
upperback -0.32107 -1.9176 0.563744
thorax -8.48557 -0.66325 4.24184
lowerneck -25.367 1.16629 0.415074
upperneck 11.2259 1.77217 -1.96639
head 7.55321 0.65603 -0.489644
rclavicle -6.55989e-015 -2.98177e-016
rhumerus -38.5094 -2.95862 -81.1981
rradius 52.7751
rwrist -4.30266
rhand -33.9454 -6.25279
rfingers 7.12502
rthumb -7.12683 -36.1128
lclavicle -6.55989e-015 -2.98177e-016
lhumerus -26.0039 -1.28728 85.1547
lradius 79.9548
lwrist 3.87131
lhand -21.3679 1.46935
lfingers 7.12502
lthumb 5.01915 31.3899
rfemur -63.0239 -13.8554 27.4111
rtibia 85.9525
rfoot -24.4841 -0.320514
rtoes -21.9538
lfemur 3.26095 -3.38471 -27.7305
ltibia 27.9476
lfoot -27.0473 -2.39399
ltoes -11.3726
149
root -0.175063 16.2558 18.5648 16.1139 1.79062 3.85551
lowerback 15.483 -0.798163 -5.99375
upperback -0.125667 -2.09306 0.506217
thorax -8.61616 -0.733387 4.41703
lowerneck -25.458 1.23471 0.477493
upperneck 10.8215 1.81682 -1.86449
head 7.43093 0.693509 -0.459563
rclavicle 1.93815e-015 -2.68359e-015
rhumerus -38.9833 -2.90994 -81.1943
rradius 53.1429
rwrist -4.89375
rhand -34.3976 -5.76628
rfingers 7.12502
rthumb -7.56333 -35.611
lclavicle 1.93815e-015 -2.68359e-015
lhumerus -24.7467 -1.04576 85.2782
lradius 81.8604
lwrist 4.28898
lhand -21.7938 1.86052
lfingers 7.12502
lthumb 4.60789 31.7904
rfemur -65.2845 -13.9047 28.1946
rtibia 85.1026
rfoot -24.9085 -0.51991
rtoes -22.7962
lfemur 3.6778 -3.38693 -27.8225
ltibia 27.6672
lfoot -27.6573 -2.71609
ltoes -10.9159
150
root -0.191856 16.1753 18.7093 16.4961 1.94389 3.97625
lowerback 16.0918 -0.788132 -6.23471
upperback 0.0824598 -2.15629 0.507664
thorax -8.71608 -0.752808 4.58801
lowerneck -25.6954 1.22109 0.466523
upperneck 10.4145 1.78242 -1.7965
head 7.3294 0.685311 -0.439498
rclavicle 1.47101e-014 8.54774e-015
rhumerus -39.6543 -3.05294 -81.1263
rradius 53.9505
rwrist -5.08415
rhand -34.9076 -5.54832
rfingers 7.12502
rthumb -8.05559 -35.3748
lclavicle 1.47101e-014 8.54774e-015
lhumerus -23.4418 -1.0008 85.5623
lradius 83.8579
lwrist 4.57085
lhand -22.3607 2.1261
lfingers 7.12502
lthumb 4.06047 32.0672
rfemur -67.3027 -13.7248 28.9213
rtibia 83.903
rfoot -25.2105 -0.18446
rtoes -21.9912
lfemur 4.05288 -3.31397 -27.7123
ltibia 27.2997
lfoot -28.0931 -3.22129
ltoes -10.5811
151
root -0.205528 16.0974 18.8695 16.9191 2.16805 4.01064
lowerback 16.52 -0.819659 -6.34556
upperback 0.377949 -2.23203 0.550046
thorax -8.61735 -0.793396 4.72381
lowerneck -26.1338 1.19329 0.404228
upperneck 10.0233 1.73672 -1.66723
head 7.26241 0.674505 -0.39175
rclavicle 1.66731e-014 -1.11816e-014
rhumerus -40.2157 -3.09973 -81.1081
rradius 54.856
rwrist -4.99188
rhand -35.4933 -5.46926
rfingers 7.12502
rthumb -8.62089 -35.2732
lclavicle 1.66731e-014 -1.11816e-014
lhumerus -22.0511 -0.89947 85.901
lradius 85.8774
lwrist 4.66919
lhand -22.7433 1.90212
lfingers 7.12502
lthumb 3.691 31.8499
rfemur -69.0543 -13.544 29.6595
rtibia 82.4784
rfoot -25.4055 0.0568455
rtoes -22.7295
lfemur 4.43919 -3.24058 -27.4762
ltibia 26.9238
lfoot -28.4384 -3.85689
ltoes -10.2788
152
root -0.215351 16.0245 19.0398 17.429 2.34804 3.9701
lowerback 16.8671 -0.860033 -6.32902
upperback 0.488831 -2.29693 0.596237
thorax -8.68058 -0.823311 4.79098
lowerneck -26.0046 1.19647 0.43944
upperneck 9.50477 1.7205 -1.66926
head 7.06905 0.672394 -0.401407
rclavicle 1.87852e-014 -1.49089e-015
rhumerus -41.3391 -3.03815 -81.1225
rradius 56.1926
rwrist -4.79287
rhand -35.9788 -5.368
rfingers 7.12502
rthumb -9.08931 -35.1521
lclavicle 1.87852e-014 -1.49089e-015
lhumerus -21.0962 -0.952201 86.2774
lradius 88.0468
lwrist 4.6889
lhand -23.2316 2.21823
lfingers 7.12502
lthumb 3.21947 32.1737
rfemur -70.6414 -13.261 30.3829
rtibia 80.9175
rfoot -25.457 0.303607
rtoes -23.9145
lfemur 4.83679 -3.15767 -27.1862
ltibia 26.3591
lfoot -28.57 -4.42146
ltoes -10.3305
153
root -0.225049 15.9645 19.2235 18.1654 2.60509 3.77663
lowerback 16.9574 -0.910388 -6.08161
upperback 0.574697 -2.30698 0.714295
thorax -8.63941 -0.839056 4.78256
lowerneck -26.1143 1.14479 0.377599
upperneck 9.1041 1.6663 -1.67489
head 6.95068 0.645602 -0.400977
rclavicle -1.25234e-014 -1.03368e-014
rhumerus -42.4913 -3.02057 -81.0887
rradius 57.714
rwrist -4.72161
rhand -36.6608 -5.01721
rfingers 7.12502
rthumb -9.74744 -34.7716
lclavicle -1.25234e-014 -1.03368e-014
lhumerus -20.1255 -1.14509 86.7747
lradius 90.1975
lwrist 4.75689
lhand -23.5849 2.10116
lfingers 7.12502
lthumb 2.87829 32.0615
rfemur -72.1732 -12.8434 31.1651
rtibia 79.2785
rfoot -25.3623 0.604682
rtoes -24.1293
lfemur 5.00203 -3.14681 -26.6895
ltibia 25.7582
lfoot -28.4927 -5.02686
ltoes -10.3475
154
root -0.23254 15.9023 19.4225 18.9139 2.84466 3.67158
lowerback 16.9547 -0.955882 -5.8777
upperback 0.650461 -2.31419 0.823845
thorax -8.55654 -0.853311 4.78514
lowerneck -26.1631 1.1015 0.285799
upperneck 8.69978 1.64145 -1.73118
head 6.82288 0.627229 -0.40897
rclavicle -5.69021e-015 1.3418e-015
rhumerus -43.7559 -3.02596 -81.0517
rradius 59.4593
rwrist -4.88966
rhand -36.7936 -4.81129
rfingers 7.12502
rthumb -9.87555 -34.5597
lclavicle -5.69021e-015 1.3418e-015
lhumerus -19.2888 -1.46897 87.3392
lradius 92.3002
lwrist 4.97083
lhand -24.0192 1.75009
lfingers 7.12502
lthumb 2.45879 31.7157
rfemur -73.4996 -12.4549 31.7285
rtibia 77.7605
rfoot -24.9611 0.818473
rtoes -24.5144
lfemur 5.28128 -3.23297 -26.312
ltibia 25.0244
lfoot -28.1084 -5.71153
ltoes -9.60057
155
root -0.23761 15.8492 19.6363 19.5737 3.07362 3.4823
lowerback 16.9471 -1.02882 -5.57808
upperback 0.691521 -2.33779 0.963334
thorax -8.5096 -0.876297 4.77017
lowerneck -25.9209 1.10016 0.259626
upperneck 8.26012 1.66037 -1.86199
head 6.64216 0.627352 -0.447046
rclavicle 1.28216e-014 -2.64384e-014
rhumerus -45.1565 -2.89865 -81.0639
rradius 61.2151
rwrist -5.39513
rhand -36.5331 -4.52151
rfingers 7.12502
rthumb -9.62422 -34.2817
lclavicle 1.28216e-014 -2.64384e-014
lhumerus -18.7432 -1.89081 87.88
lradius 94.4049
lwrist 5.37442
lhand -24.5653 1.51289
lfingers 7.12502
lthumb 1.93136 31.4839
rfemur -74.4254 -12.046 32.234
rtibia 76.3997
rfoot -24.4127 0.794643
rtoes -24.8207
lfemur 5.70191 -3.24736 -25.8691
ltibia 24.2395
lfoot -27.6559 -6.18516
ltoes -10.1893
156
root -0.240701 15.8054 19.8686 19.9599 3.2968 3.28169
lowerback 17.1794 -1.09005 -5.21141
upperback 0.791526 -2.34547 1.08805
thorax -8.53724 -0.892377 4.70603
lowerneck -25.728 1.12145 0.231807
upperneck 7.90908 1.71166 -2.00041
head 6.49929 0.641905 -0.48287
rclavicle 3.04638e-014 -8.94531e-016
rhumerus -46.5534 -2.79711 -81.1207
rradius 63.0293
rwrist -6.05609
rhand -36.3566 -4.33383
rfingers 7.12502
rthumb -9.45385 -34.1018
lclavicle 3.04638e-014 -8.94531e-016
lhumerus -18.3433 -2.48069 88.3397
lradius 96.323
lwrist 5.80434
lhand -24.9801 0.713801
lfingers 7.12502
lthumb 1.53074 30.6881
rfemur -74.7724 -11.7341 32.5626
rtibia 75.3178
rfoot -23.7282 0.764671
rtoes -24.6753
lfemur 6.53257 -3.38667 -25.4794
ltibia 23.3479
lfoot -26.9362 -6.55046
ltoes -10.653
157
root -0.238439 15.7621 20.1098 20.6444 3.60283 3.14456
lowerback 17.0872 -1.22522 -4.72274
upperback 0.783509 -2.4133 1.20698
thorax -8.50079 -0.942946 4.5685
lowerneck -25.5914 1.1343 0.20146
upperneck 7.65502 1.75907 -2.17693
head 6.39773 0.650168 -0.531002
rclavicle 3.18055e-015 -7.85199e-015
rhumerus -47.8864 -2.68087 -81.1831
rradius 64.6648
rwrist -6.80477
rhand -36.128 -3.77605
rfingers 7.12502
rthumb -9.23329 -33.5539
lclavicle 3.18055e-015 -7.85199e-015
lhumerus -18.2208 -3.18206 88.8169
lradius 98.1996
lwrist 6.30286
lhand -25.552 0.119825
lfingers 7.12502
lthumb 0.978426 30.0973
rfemur -75.2913 -11.5383 32.8508
rtibia 74.5662
rfoot -22.7624 0.592454
rtoes -24.658
lfemur 7.03552 -3.77578 -25.1902
ltibia 22.513
lfoot -25.9867 -6.68408
ltoes -11.7411
158
root -0.238897 15.7254 20.3674 21.1666 3.82687 2.9428
lowerback 17.0297 -1.32903 -4.29879
upperback 0.877349 -2.44737 1.38356
thorax -8.37156 -0.97843 4.52074
lowerneck -25.6083 1.18531 0.162295
upperneck 7.48273 1.86753 -2.39531
head 6.34747 0.68225 -0.583431
rclavicle 2.09718e-014 4.17448e-015
rhumerus -48.9826 -2.5313 -81.2392
rradius 66.1767
rwrist -7.51023
rhand -35.7239 -3.29771
rfingers 7.12502
rthumb -8.84339 -33.0924
lclavicle 2.09718e-014 4.17448e-015
lhumerus -18.1139 -3.98992 89.245
lradius 99.7598
lwrist 6.63214
lhand -26.397 -0.841817
lfingers 7.12502
lthumb 0.162266 29.1379
rfemur -75.3486 -11.3136 33.0584
rtibia 74.1729
rfoot -21.6234 0.280644
rtoes -24.1804
lfemur 7.72801 -4.27269 -24.9168
ltibia 21.7265
lfoot -24.8286 -6.61771
ltoes -13.0472
159
root -0.237579 15.6918 20.6354 21.6469 3.99318 2.8136
lowerback 17.0525 -1.4261 -3.91611
upperback 0.891305 -2.48887 1.52959
thorax -8.37381 -1.01009 4.4713
lowerneck -25.5304 1.26847 0.144157
upperneck 7.39738 2.01325 -2.61409
head 6.31291 0.733135 -0.63474
rclavicle 1.98785e-016 9.74045e-015
rhumerus -50.1015 -2.43841 -81.2979
rradius 67.5025
rwrist -7.9389
rhand -35.384 -2.83854
rfingers 7.12502
rthumb -8.51537 -32.6468
lclavicle 1.98785e-016 9.74045e-015
lhumerus -18.4178 -4.95094 89.6332
lradius 101.302
lwrist 6.86141
lhand -27.1434 -1.3517
lfingers 7.12502
lthumb -0.558589 28.6273
rfemur -75.1143 -11.1057 33.0682
rtibia 74.1416
rfoot -20.215 -0.195471
rtoes -23.3317
lfemur 8.36568 -4.5962 -24.7048
ltibia 21.1527
lfoot -23.5216 -6.52589
ltoes -15.4924
